<svg width="28" height="28" viewBox="0 0 28 28" fill="none" xmlns="http://www.w3.org/2000/svg">
<path d="M19.8331 2.33313C21.3789 2.33774 22.8601 2.95385 23.9531 4.04689C25.0461 5.13993 25.6623 6.62109 25.6669 8.16687V19.8331C25.6623 21.3789 25.0461 22.8601 23.9531 23.9531C22.8601 25.0462 21.3789 25.6623 19.8331 25.6669H8.16687C6.62109 25.6623 5.13993 25.0462 4.04689 23.9531C2.95385 22.8601 2.33774 21.3789 2.33312 19.8331V8.16687C2.33774 6.62109 2.95385 5.13993 4.04689 4.04689C5.13993 2.95385 6.62109 2.33774 8.16687 2.33313H19.8331ZM19.8331 0H8.16687C3.675 0 0 3.675 0 8.16687V19.8331C0 24.325 3.675 28 8.16687 28H19.8331C24.325 28 28 24.325 28 19.8331V8.16687C28 3.675 24.325 0 19.8331 0Z" fill="white"/>
<path d="M21.5831 8.16699C21.237 8.16699 20.8987 8.06436 20.6109 7.87207C20.3231 7.67977 20.0988 7.40646 19.9663 7.08669C19.8339 6.76692 19.7992 6.41505 19.8668 6.07558C19.9343 5.73612 20.1009 5.4243 20.3457 5.17956C20.5904 4.93481 20.9023 4.76814 21.2417 4.70062C21.5812 4.63309 21.9331 4.66775 22.2528 4.8002C22.5726 4.93266 22.8459 5.15696 23.0382 5.44475C23.2305 5.73253 23.3331 6.07088 23.3331 6.41699C23.3336 6.64694 23.2887 6.87473 23.2009 7.08727C23.1132 7.29982 22.9843 7.49293 22.8217 7.65553C22.6591 7.81813 22.466 7.94702 22.2534 8.03479C22.0409 8.12256 21.8131 8.16749 21.5831 8.16699ZM14 9.33324C14.923 9.33324 15.8253 9.60695 16.5928 10.1198C17.3602 10.6326 17.9584 11.3614 18.3116 12.2142C18.6649 13.0669 18.7573 14.0053 18.5772 14.9106C18.3971 15.8159 17.9527 16.6474 17.3 17.3001C16.6473 17.9528 15.8157 18.3972 14.9105 18.5773C14.0052 18.7574 13.0668 18.665 12.2141 18.3117C11.3613 17.9585 10.6324 17.3604 10.1196 16.5929C9.60684 15.8254 9.33313 14.9231 9.33313 14.0001C9.33445 12.7628 9.82656 11.5765 10.7015 10.7016C11.5764 9.82668 12.7627 9.33457 14 9.33324ZM14 7.00012C12.6155 7.00012 11.2622 7.41066 10.111 8.17983C8.95987 8.949 8.06266 10.0423 7.53285 11.3213C7.00303 12.6004 6.86441 14.0079 7.13451 15.3658C7.4046 16.7236 8.07129 17.9709 9.05026 18.9499C10.0292 19.9288 11.2765 20.5955 12.6344 20.8656C13.9922 21.1357 15.3997 20.9971 16.6788 20.4673C17.9579 19.9375 19.0511 19.0403 19.8203 17.8891C20.5895 16.738 21 15.3846 21 14.0001C21 12.1436 20.2625 10.3631 18.9497 9.05037C17.637 7.73762 15.8565 7.00012 14 7.00012Z" fill="white"/>
</svg>
